<svg width="256" height="256" viewBox="0 0 256 256" fill="none" xmlns="http://www.w3.org/2000/svg">
<path d="M128 250.88C195.865 250.88 250.88 195.865 250.88 128C250.88 60.1352 195.865 5.12 128 5.12C60.1353 5.12 5.12003 60.1352 5.12003 128C5.12003 195.865 60.1353 250.88 128 250.88Z" fill="#EA4C89"/>
<path fill-rule="evenodd" clip-rule="evenodd" d="M128 0C57.3363 0 0 57.3363 0 128C0 198.664 57.3363 256 128 256C198.525 256 256 198.664 256 128C256 57.3363 198.525 0 128 0ZM212.547 59.0021C227.818 77.6051 236.98 101.345 237.258 127.028C233.649 126.334 197.553 118.976 161.18 123.557C160.347 121.753 159.653 119.809 158.82 117.865C156.599 112.59 154.1 107.176 151.601 102.039C191.861 85.6573 210.186 62.0564 212.547 59.0021ZM128 18.8807C155.766 18.8807 181.171 29.2928 200.468 46.3688C198.525 49.1453 182.004 71.2192 143.132 85.7961C125.223 52.8937 105.371 25.961 102.317 21.7961C110.508 19.8525 119.115 18.8807 128 18.8807ZM81.4925 29.154C84.4078 33.0412 103.844 60.1129 122.03 92.321C70.9414 105.926 25.8222 105.649 20.9631 105.649C28.0433 71.7745 50.9501 43.5922 81.4925 29.154ZM18.603 128.139C18.603 127.028 18.603 125.918 18.603 124.807C23.3232 124.946 76.3558 125.64 130.915 109.258C134.108 115.367 137.024 121.614 139.8 127.861C138.412 128.278 136.885 128.694 135.497 129.111C79.1324 147.297 49.1453 196.998 46.6465 201.163C29.2928 181.865 18.603 156.182 18.603 128.139ZM128 237.397C102.733 237.397 79.4099 228.79 60.9457 214.351C62.8895 210.326 85.1021 167.566 146.742 146.048C147.02 145.909 147.158 145.909 147.436 145.77C162.846 185.614 169.093 219.071 170.759 228.651C157.571 234.343 143.132 237.397 128 237.397ZM188.946 218.655C187.835 211.991 182.004 180.061 167.705 140.772C201.996 135.358 231.983 144.243 235.731 145.492C231.011 175.896 213.518 202.135 188.946 218.655Z" fill="#C32361"/>
</svg>
